<?xml version="1.0" encoding="UTF-8" standalone="no"?>
<!-- Created with Inkscape (http://www.inkscape.org/) -->

<svg
   width="420mm"
   height="600mm"
   viewBox="0 0 105 150"
   version="1.1"
   id="svg5"
   inkscape:version="1.1 (c68e22c387, 2021-05-23)"
   sodipodi:docname="logo.svg"
   xmlns:inkscape="http://www.inkscape.org/namespaces/inkscape"
   xmlns:sodipodi="http://sodipodi.sourceforge.net/DTD/sodipodi-0.dtd"
   xmlns="http://www.w3.org/2000/svg"
   xmlns:svg="http://www.w3.org/2000/svg">
  <sodipodi:namedview
     id="namedview7"
     pagecolor="#ffffff"
     bordercolor="#666666"
     borderopacity="1.0"
     inkscape:pageshadow="2"
     inkscape:pageopacity="0.0"
     inkscape:pagecheckerboard="0"
     inkscape:document-units="mm"
     showgrid="false"
     inkscape:zoom="0.30285658"
     inkscape:cx="308.72699"
     inkscape:cy="909.6715"
     inkscape:window-width="1920"
     inkscape:window-height="1051"
     inkscape:window-x="-9"
     inkscape:window-y="-9"
     inkscape:window-maximized="1"
     inkscape:current-layer="layer1" />
  <defs
     id="defs2" />
  <g
     inkscape:label="Layer 1"
     inkscape:groupmode="layer"
     id="layer1">
    <path
       style="fill:#bbc7f1;fill-opacity:1;stroke:#bbc7f1;stroke-width:1.89968;stroke-opacity:1"
       d="M 50.913741,157.61271 V 80.597645 l 39.724843,0.653571 39.724826,0.65357 7.8964,5.836556 c 21.66019,16.009848 21.66024,48.199658 5e-5,64.202038 -7.71251,5.69792 -8.54607,5.85963 -35.10257,6.80929 l -27.202431,0.97276 -0.50373,37.45118 -0.50379,37.45118 H 62.930534 50.913741 Z"
       id="path39150" />
    <path
       style="fill:#bbc7f1;fill-opacity:1;stroke:#bbc7f1;stroke-width:1.89968;stroke-opacity:1"
       d="m 91.109779,207.57288 c -0.153083,-15.08074 -0.361725,-28.51388 -0.46374,-29.85141 -0.130446,-1.71064 5.315882,-2.85314 18.363451,-3.85214 22.71778,-1.73944 33.0649,-4.5364 40.25407,-10.88122 l 5.50623,-4.85952 -0.6213,24.30755 c -0.58992,23.07772 -0.90289,24.78249 -6.18604,33.69601 -8.0543,13.5888 -16.03625,17.36139 -38.48922,18.19157 l -18.085258,0.66869 z"
       id="path39189" />
  </g>
</svg>
