<?xml version="1.0" encoding="UTF-8" standalone="no"?>
<!-- Created with Inkscape (http://www.inkscape.org/) -->

<svg
   width="250mm"
   height="210mm"
   viewBox="-100 25 300 210"
   version="1.1"
   id="svg5"
   inkscape:version="1.1 (c68e22c387, 2021-05-23)"
   sodipodi:docname="logo.svg"
   xmlns:inkscape="http://www.inkscape.org/namespaces/inkscape"
   xmlns:sodipodi="http://sodipodi.sourceforge.net/DTD/sodipodi-0.dtd"
   xmlns="http://www.w3.org/2000/svg"
   xmlns:svg="http://www.w3.org/2000/svg">
  <sodipodi:namedview
     id="namedview7"
     pagecolor="#ffffff"
     bordercolor="#666666"
     borderopacity="1.0"
     inkscape:pageshadow="2"
     inkscape:pageopacity="0.0"
     inkscape:pagecheckerboard="0"
     inkscape:document-units="mm"
     showgrid="false"
     inkscape:zoom="0.30285658"
     inkscape:cx="1089.6247"
     inkscape:cy="912.9734"
     inkscape:window-width="1920"
     inkscape:window-height="1051"
     inkscape:window-x="-9"
     inkscape:window-y="-9"
     inkscape:window-maximized="1"
     inkscape:current-layer="layer1" />
  <defs
     id="defs2" />
  <g
     inkscape:label="Layer 1"
     inkscape:groupmode="layer"
     id="layer1">
    <path
       style="fill:#000000;fill-opacity:1;stroke:#000000;stroke-width:1.18163;stroke-opacity:1"
       d="m 71.027834,243.09605 c -8.94844,-3.56127 -18.924164,-7.50711 -22.168062,-8.76849 -3.243897,-1.26137 -8.507122,-3.43206 -11.695717,-4.82379 -3.188596,-1.39167 -6.32833,-2.53032 -6.977146,-2.53032 -2.626275,0 -9.945542,-6.08586 -10.777381,-8.96113 -0.489534,-1.69106 -0.88981,-18.28712 -0.88981,-36.88005 0,-40.0491 0.0276,-40.11457 13.497882,-45.11388 1.564484,-0.58021 11.47782,-4.52644 22.029575,-8.76906 37.633281,-15.13161 37.441424,-15.07988 39.825417,-10.74456 1.870071,3.40024 1.870071,127.14598 0,130.54623 -0.788591,1.43524 -2.502787,2.5202 -3.98059,2.5202 -1.427195,0 -9.916006,-2.91381 -18.864536,-6.47515 z"
       id="path48226" />
    <path
       style="fill:#000000;fill-opacity:1;stroke:#000000;stroke-width:1.18163;stroke-opacity:1"
       d="m 126.573,188.72006 c -0.93222,-1.20444 -1.47101,-14.2851 -1.47101,-35.71639 0,-33.44367 -0.0341,-33.85203 -3.19764,-37.08884 -3.28579,-3.36329 -7.6786,-5.36837 -33.750838,-15.40563 -1.954041,-0.752223 -5.79078,-2.27743 -8.526575,-3.389301 C 76.891381,96.008028 66.339931,91.77157 56.178984,87.70561 37.183001,80.104088 31.309938,77.144911 31.309938,75.175325 c 0,-1.844702 5.679513,-4.844913 17.763573,-9.383754 C 55.326377,63.442946 68.4359,58.238333 78.205844,54.225752 104.34066,43.491943 101.21484,43.262335 139.58246,58.7338 c 17.43758,7.031689 34.90242,14.009435 38.81025,15.506197 11.32738,4.338313 16.84741,6.907826 19.89534,9.261281 2.71754,2.098223 2.85996,3.792844 3.24828,38.648272 0.29317,26.31713 -0.0579,37.23097 -1.2682,39.24872 -1.18566,1.97874 -5.45431,4.31757 -14.61705,8.00888 -7.11862,2.86769 -21.87907,8.81385 -32.80156,13.21362 -10.9225,4.3999 -20.97193,7.99971 -22.33217,7.99971 -1.36023,0 -3.13531,-0.85523 -3.94435,-1.90042 z"
       id="path48265" />
  </g>
</svg>
