<?xml version="1.0" encoding="UTF-8" standalone="no"?>
<!-- Created with Inkscape (http://www.inkscape.org/) -->

<svg
   width="210mm"
   height="297mm"
   viewBox="0 0 210 297"
   version="1.1"
   id="svg5"
   inkscape:version="1.1 (c68e22c387, 2021-05-23)"
   sodipodi:docname="icon.svg"
   xmlns:inkscape="http://www.inkscape.org/namespaces/inkscape"
   xmlns:sodipodi="http://sodipodi.sourceforge.net/DTD/sodipodi-0.dtd"
   xmlns="http://www.w3.org/2000/svg"
   xmlns:svg="http://www.w3.org/2000/svg">
  <sodipodi:namedview
     id="namedview7"
     pagecolor="#ffffff"
     bordercolor="#666666"
     borderopacity="1.0"
     inkscape:pageshadow="2"
     inkscape:pageopacity="0.0"
     inkscape:pagecheckerboard="0"
     inkscape:document-units="mm"
     showgrid="false"
     inkscape:zoom="0.30285658"
     inkscape:cx="308.72699"
     inkscape:cy="909.6715"
     inkscape:window-width="1920"
     inkscape:window-height="1051"
     inkscape:window-x="-9"
     inkscape:window-y="-9"
     inkscape:window-maximized="1"
     inkscape:current-layer="layer1" />
  <defs
     id="defs2" />
  <g
     inkscape:label="Layer 1"
     inkscape:groupmode="layer"
     id="layer1">
    <ellipse
       style="fill:#1f2347;fill-opacity:1;stroke:#1f2347;stroke-width:0.28341;stroke-opacity:1"
       id="path55102"
       cx="100.03014"
       cy="158.99989"
       rx="104.38887"
       ry="105.69931" />
    <path
       style="fill:#bbc7f1;fill-opacity:1;stroke:#bbc7f1;stroke-width:1.85125;stroke-opacity:1"
       d="M 56.141413,157.61271 V 80.597645 l 37.725263,0.653571 37.725244,0.65357 7.49893,5.836556 c 20.56991,16.009848 20.56996,48.199658 5e-5,64.202038 -7.3243,5.69792 -8.1159,5.85963 -33.33566,6.80929 l -25.833173,0.97276 -0.478374,37.45118 -0.478431,37.45118 H 67.553331 56.141413 Z"
       id="path39150" />
    <path
       style="fill:#bbc7f1;fill-opacity:1;stroke:#bbc7f1;stroke-width:1.85125;stroke-opacity:1"
       d="m 94.314153,207.57288 c -0.145377,-15.08074 -0.343517,-28.51388 -0.440397,-29.85141 -0.12388,-1.71064 5.048303,-2.85314 17.439114,-3.85214 21.57426,-1.73944 31.40055,-4.5364 38.22785,-10.88122 l 5.22907,-4.85952 -0.59003,24.30755 c -0.56022,23.07772 -0.85744,24.78249 -5.87466,33.69601 -7.64888,13.5888 -15.22905,17.36139 -36.55183,18.19157 l -17.174927,0.66869 z"
       id="path39189" />
  </g>
</svg>
